#N canvas -8 -8 1366 685 10;
#X declare -lib mrpeach;
#X obj 47 -261 import mrpeach;
#X obj 346 281 udpsend;
#X msg 414 207 disconnect;
#X obj 348 206 packOSC;
#X msg 349 164 send /c1 \$1;
#X obj 457 -137 adc~;
#X obj 455 -30 *~;
#X obj 590 -212 vsl 15 128 0 127 0 0 empty empty empty 0 -9 0 10 -262144
-1 -1 0 1;
#X obj 537 -52 / 100;
#X obj 450 48 fiddle~;
#X obj 450 87 i;
#X floatatom 450 124 5 0 0 0 - - -;
#X obj 356 -34 dac~;
#X msg 408 239 connect 192.168.1.85 12001;
#X connect 2 0 1 0;
#X connect 3 0 1 0;
#X connect 4 0 3 0;
#X connect 5 0 6 0;
#X connect 5 0 12 0;
#X connect 5 1 6 0;
#X connect 5 1 12 1;
#X connect 6 0 9 0;
#X connect 7 0 8 0;
#X connect 8 0 6 1;
#X connect 9 0 10 0;
#X connect 10 0 11 0;
#X connect 11 0 4 0;
#X connect 13 0 1 0;
